<svg xmlns="http://www.w3.org/2000/svg" width="200" height="93.53" viewBox="0 0 200 93.53">
  <g id="Group_1" data-name="Group 1" transform="translate(0 -6.47)">
    <path id="Path_1" data-name="Path 1" d="M198.474,29.677c-2.822-9.817-8.992-16.43-18.718-19.718a61.908,61.908,0,0,0-15.147-2.938c-4.392-.339-8.809-.412-13.217-.456-8.284-.083-16.569-.069-24.854-.078q-8.66-.009-17.321,0c-9.479-.034-22.742,0-29.771.077a5.756,5.756,0,0,0-5.612,4.8c-.51,3.032-1.144,6.853-1.53,9.273-.75,4.7-1.482,9.41-2.237,14.113-.75,4.667-1.526,9.33-2.276,14-.511,3.185-1.34,8.167-2.029,12.161a1.194,1.194,0,0,1-2.351.008L54.28,11.272a5.757,5.757,0,0,0-5.661-4.716H14.812A5.76,5.76,0,0,0,9.088,11.7Q4.546,53.992.021,96.118A3.506,3.506,0,0,0,3.506,100h25.9a3.5,3.5,0,0,0,3.5-3.355c.1-2.448.229-5.649.288-7.531.16-5.09.3-10.181.448-15.272q.207-7.1.415-14.2.224-7.69.446-15.379,0-.158.009-.328a1.228,1.228,0,0,1,2.431-.205q.134.671.267,1.342,1.1,5.533,2.188,11.066,1.085,5.48,2.176,10.958t2.184,10.958q1.1,5.531,2.205,11.061c.506,2.538.979,5.083,1.5,7.613A4.1,4.1,0,0,0,51.482,100H78.414a4.114,4.114,0,0,0,4.038-3.334l10.271-53.2a1.226,1.226,0,0,1,2.429.183c.237,5.8.472,12.432.549,14.926q.209,6.774.419,13.549c.147,4.768.3,9.535.438,14.3.069,2.438.245,7.328.375,10.525a3.167,3.167,0,0,0,3.165,3.04h27.158a2.526,2.526,0,0,0,2.517-2.769c-.419-4.33-1.262-12.638-1.714-17.061a2.617,2.617,0,0,1,2.606-2.884c5.2,0,16.133.007,22.059-.011,2.652-.008,5.3-.113,7.955-.185a72.483,72.483,0,0,0,11.73-1.328,42.784,42.784,0,0,0,13.839-5.117,27.526,27.526,0,0,0,7.42-6.467,26.475,26.475,0,0,0,4.344-8.708,43.686,43.686,0,0,0,1.822-10.236A43.665,43.665,0,0,0,198.474,29.677ZM147.858,56.8c-11.5,0-21.421-7.954-25.965-12.282a3.761,3.761,0,0,1,0-5.455c4.545-4.327,14.462-12.281,25.965-12.281,11.525,0,21.459,7.985,25.991,12.307a3.738,3.738,0,0,1,0,5.4C169.317,48.816,159.384,56.8,147.858,56.8Z" transform="translate(0)"/>
    <circle id="Ellipse_1" data-name="Ellipse 1" cx="7.968" cy="7.968" r="7.968" transform="translate(139.89 33.825)" fill="#f90000"/>
  </g>
</svg>
